<svg width="25" height="41" viewBox="0 0 25 41" fill="none" xmlns="http://www.w3.org/2000/svg">
<path d="M10.4789 36.0747C8.80212 37.4357 5.99593 39.1556 5.99593 39.1556C5.99593 39.1556 4.36422 34.6781 3.60373 31.7839C2.79634 28.7112 2.05138 23.9 2.05138 23.9C2.05138 23.9 1.22082 19.5219 1.32352 16.552L1.32533 16.4996C1.41305 13.962 1.47091 12.2878 2.25027 9.92637C2.90429 7.94472 3.33785 6.77017 4.53652 5.24186C5.72296 3.72913 6.62438 3.13007 8.18485 2.32378C9.92862 1.4228 11.0392 1.07946 12.9179 1.16821C14.5851 1.24697 15.5498 1.57222 17.0613 2.45013C18.9162 3.52741 19.9078 4.50175 21.165 6.52677C22.1471 8.10865 22.6457 9.14759 23.0421 11.0958C23.5119 13.405 23.3337 14.8667 22.9551 17.2093C22.5473 19.7324 21.9559 21.0658 20.9263 23.2951C19.51 26.3618 18.2666 27.7375 16.25 30.2168C14.1785 32.7635 12.9115 34.1003 10.4789 36.0747Z" stroke="white" stroke-width="2"/>
</svg>
